<?xml version="1.0" standalone="no"?>
<!DOCTYPE svg PUBLIC "-//W3C//DTD SVG 20010904//EN"
 "http://www.w3.org/TR/2001/REC-SVG-20010904/DTD/svg10.dtd">
<svg version="1.0" xmlns="http://www.w3.org/2000/svg"
 width="255.000000pt" height="170.000000pt" viewBox="0 0 255.000000 170.000000"
 preserveAspectRatio="xMidYMid meet">

<g transform="translate(0.000000,170.000000) scale(0.100000,-0.100000)"
fill="#000000" stroke="none">
<path d="M505 1358 l-115 -173 22 -17 c13 -10 28 -18 33 -18 8 0 223 314 234
342 4 11 -28 37 -46 38 -7 0 -65 -78 -128 -172z"/>
<path d="M1888 1516 c-10 -7 -18 -16 -18 -20 0 -11 100 -156 108 -156 4 0 18
9 31 19 l24 18 -52 77 c-28 42 -57 76 -64 76 -7 0 -20 -7 -29 -14z"/>
<path d="M598 1302 l-118 -177 23 -17 c12 -10 25 -18 29 -18 7 0 224 319 234
343 2 7 -8 20 -23 29 l-28 16 -117 -176z"/>
<path d="M1807 1462 c-15 -9 -25 -22 -23 -29 10 -24 227 -343 234 -343 4 0 17
8 29 18 l23 17 -118 177 -118 176 -27 -16z"/>
<path d="M685 1243 l-117 -176 23 -18 c13 -10 27 -19 31 -19 7 0 224 319 234
343 2 7 -9 20 -24 29 l-29 17 -118 -176z"/>
<path d="M1720 1403 c-14 -9 -27 -18 -29 -19 -5 -5 100 -164 108 -164 3 0 17
9 30 19 l25 19 -53 81 c-30 45 -54 81 -55 81 -1 0 -13 -8 -26 -17z"/>
<path d="M2013 1324 l-22 -16 52 -79 c29 -43 57 -79 62 -79 6 0 20 8 32 18
l23 17 -52 78 c-28 42 -56 77 -62 76 -6 0 -21 -7 -33 -15z"/>
<path d="M1143 1252 c-156 -56 -254 -172 -285 -337 -32 -177 69 -367 239 -448
64 -30 75 -32 178 -32 103 0 114 2 178 32 219 104 305 359 195 576 -39 79
-109 146 -193 188 -61 30 -79 34 -164 36 -74 3 -108 -1 -148 -15z"/>
<path d="M1847 1212 c-15 -9 -27 -20 -27 -25 0 -12 100 -157 108 -157 4 0 18
9 31 19 l23 18 -54 81 -54 80 -27 -16z"/>
<path d="M591 651 l-23 -18 117 -176 118 -176 29 17 c15 9 26 22 24 29 -10 24
-227 343 -234 343 -4 0 -18 -9 -31 -19z"/>
<path d="M1870 595 c-27 -41 -50 -78 -50 -82 0 -5 12 -16 27 -25 l27 -16 54
80 54 81 -23 18 c-13 10 -27 19 -31 19 -4 0 -30 -34 -58 -75z"/>
<path d="M502 592 l-22 -17 46 -70 c26 -39 50 -74 55 -79 10 -11 59 12 59 26
0 13 -99 158 -108 158 -4 0 -17 -8 -30 -18z"/>
<path d="M1960 535 c-27 -41 -50 -78 -50 -83 0 -14 49 -37 59 -26 5 5 29 40
55 79 l46 70 -22 17 c-13 10 -26 18 -30 18 -4 0 -30 -34 -58 -75z"/>
<path d="M412 532 l-22 -17 115 -173 c63 -94 121 -172 128 -172 18 1 50 27 46
38 -11 28 -226 342 -234 342 -5 0 -20 -8 -33 -18z"/>
<path d="M2043 471 l-52 -79 24 -16 c13 -9 28 -16 33 -16 5 0 32 35 60 78 l52
77 -23 17 c-12 10 -26 18 -32 18 -5 0 -33 -36 -62 -79z"/>
<path d="M1739 399 c-55 -84 -55 -82 -8 -109 14 -8 26 5 70 71 l53 81 -25 19
c-13 10 -27 19 -30 19 -4 0 -30 -36 -60 -81z"/>
<path d="M631 401 l-23 -18 54 -81 c58 -87 55 -86 107 -46 5 5 -100 164 -108
164 -3 0 -17 -9 -30 -19z"/>
<path d="M1830 340 c-29 -44 -51 -82 -49 -84 52 -40 49 -41 107 46 l54 81 -23
18 c-13 10 -27 19 -30 19 -4 0 -30 -36 -59 -80z"/>
<path d="M1920 285 c-27 -41 -50 -77 -50 -81 0 -10 33 -33 47 -34 7 0 36 34
64 76 l52 77 -24 18 c-13 10 -27 19 -31 19 -4 0 -30 -34 -58 -75z"/>
</g>
</svg>
